{"title":"Growth.2009.480p.REPACK.BRRip.XviD.Ac3.Feel-Free ","uid":6497105,"size":1046144481,"categoryP":"video","categoryS":"movies","magnet":"?xt=urn:btih:14d9bfda9d2fdae8e02a0432722af6f17d8d39e3&amp;dn=Growth.2009.480p.REPACK.BRRip.XviD.Ac3.Feel-Free+&amp;tr=udp%3A%2F%2Ftracker.openbittorrent.com%3A80&amp;tr=udp%3A%2F%2Fopen.demonii.com%3A1337&amp;tr=udp%3A%2F%2Ftracker.coppersurfer.tk%3A6969&amp;tr=udp%3A%2F%2Fexodus.desync.com%3A6969","seeders":0,"leechers":1,"uploader":"TPBAgri","files":-1,"time":1309112842,"description":"\nGenre:Horror | Sci-Fi | Thriller\nLanguage:English\nIMDb:http://www.imdb.com/title/tt1300159/\nSource:BluRay.x264.WiKi Thanks!\nSubtitles:Romana\n\nFormat : AVI\nFormat/Info : Audio Video Interleave\nFile size : 997 MiB\nDuration : 1h 30mn\nOverall bit rate : 1 543 Kbps\n\nVideo\nID : 0\nFormat : MPEG-4 Visual\nFormat profile : Advanced Simple@L5\nFormat settings, BVOP : Yes\nFormat settings, QPel : No\nFormat settings, GMC : No warppoints\nFormat settings, Matrix : Default (H.263)\nCodec ID : XVID\nCodec ID/Hint : XviD\nDuration : 1h 30mn\nBit rate : 1 085 Kbps\nWidth : 640 pixels\nHeight : 272 pixels\nDisplay aspect ratio : 2.35:1\nFrame rate : 23.976 fps\nColor space : YUV\nChroma subsampling : 4:2:0\nBit depth : 8 bits\nScan type : Progressive\nBits/(Pixel*Frame) : 0.260\nStream size : 701 MiB (70%)\nWriting library : XviD 1.2.1 (UTC 2008-12-04)\n\nAudio\nID : 1\nFormat : AC-3\nFormat/Info : Audio Coding 3\nMode extension : CM (complete main)\nCodec ID : 2000\nDuration : 1h 30mn\nBit rate mode : Constant\nBit rate : 448 Kbps\nChannel(s) : 6 channels\nChannel positions : Front: L C R, Side: L R, LFE\nSampling rate : 48.0 KHz\nBit depth : 16 bits\nStream size : 289 MiB (29%)\nAlignment : Aligned on interleaves\nInterleave, duration : 42 ms (1.00 video frame)\nInterleave, preload duration : 512 ms\n\n\n\n\nPlot:\nIn 1989, a breakthrough in advanced parasitic research on Cuttyhunk Island, gave scientists a jump in human evolution..\n\n &lt;a href=&quot;\nhttp://leetleech.org/images/76264533591277739838.png&quot; rel=&quot;nofollow&quot; target=&quot;_NEW&quot;&gt;\nhttp://leetleech.org/images/76264533591277739838.png&lt;/a&gt;\n &lt;a href=&quot;\nhttp://leetleech.org/images/33970929491632085157.png&quot; rel=&quot;nofollow&quot; target=&quot;_NEW&quot;&gt;\nhttp://leetleech.org/images/33970929491632085157.png&lt;/a&gt;\n &lt;a href=&quot;\nhttp://leetleech.org/images/63081083045789168259.png&quot; rel=&quot;nofollow&quot; target=&quot;_NEW&quot;&gt;\nhttp://leetleech.org/images/63081083045789168259.png&lt;/a&gt;\n &lt;a href=&quot;\nhttp://leetleech.org/images/45186140853809106301.png&quot; rel=&quot;nofollow&quot; target=&quot;_NEW&quot;&gt;\nhttp://leetleech.org/images/45186140853809106301.png&lt;/a&gt;","torrent":{"xt":"urn:btih:14d9bfda9d2fdae8e02a0432722af6f17d8d39e3","amp;dn":"Growth.2009.480p.REPACK.BRRip.XviD.Ac3.Feel-Free+","amp;tr":["udp%3A%2F%2Ftracker.openbittorrent.com%3A80","udp%3A%2F%2Fopen.demonii.com%3A1337","udp%3A%2F%2Ftracker.coppersurfer.tk%3A6969","udp%3A%2F%2Fexodus.desync.com%3A6969"],"infoHash":"14d9bfda9d2fdae8e02a0432722af6f17d8d39e3","infoHashBuffer":{"type":"Buffer","data":[20,217,191,218,157,47,218,232,224,42,4,50,114,42,246,241,125,141,57,227]},"announce":[],"urlList":[]}}